# xmcd CD database file
#
# Track frame offsets:
#	150
#	31739
#	51041
#	73937
#	96691
#	126096
#	144948
#	164616
#	187212
#	204122
#	228089
#	250348
#	272976
#
# Disc length: 3894 seconds
#
# Revision: 0
# Processed by: cddbd v1.5.2PL0 Copyright (c) Steve Scherf et al.
# Submitted via: CDex 1.51
#
DISCID=c00f340d
DTITLE=Washington Savage - Savage Piano Lounge
DYEAR=2007
DGENRE=Jazz
TTITLE0=Wonderful World
TTITLE1=Ruby
TTITLE2=Blue Moon
TTITLE3=Old Folks
TTITLE4=Take Five
TTITLE5=Ain't No Sunshine
TTITLE6=As Time Goes By
TTITLE7=Ne Me Quitte Pas
TTITLE8=One of the Three
TTITLE9=Tenderly
TTITLE10=Tyrant Saint Blues
TTITLE11=Godfather
TTITLE12=Prelude to a Kiss
EXTD=YEAR: 2007
EXTT0=
EXTT1=
EXTT2=
EXTT3=
EXTT4=
EXTT5=
EXTT6=
EXTT7=
EXTT8=
EXTT9=
EXTT10=
EXTT11=
EXTT12=
PLAYORDER=
